<svg xmlns="http://www.w3.org/2000/svg" viewBox="0 0 64 64" role="img" aria-label="おかいものメモ">
  <defs>
    <linearGradient id="bg" x1="0" y1="0" x2="1" y2="1">
      <stop offset="0" stop-color="#ffbece"/>
      <stop offset="1" stop-color="#ff96af"/>
    </linearGradient>
    <linearGradient id="bag" x1="0" y1="0" x2="0" y2="1">
      <stop offset="0" stop-color="#fff7e9"/>
      <stop offset="1" stop-color="#ffe9cf"/>
    </linearGradient>
  </defs>
  <rect width="64" height="64" rx="14" fill="url(#bg)"/>
  <!-- 持ち手 -->
  <path d="M24 27 C24 15 32 15 32 15 C32 15 40 15 40 27" fill="none" stroke="#e79aae" stroke-width="3.4" stroke-linecap="round"/>
  <!-- バッグ本体 -->
  <path d="M17 26 h30 l-2.5 24 a3 3 0 0 1 -3 2.7 H22.5 a3 3 0 0 1 -3 -2.7 Z" fill="url(#bag)" stroke="#e9a86a" stroke-width="2"/>
  <!-- 口の縁 -->
  <rect x="15.5" y="24" width="33" height="4.5" rx="2.2" fill="#ffd9a0" stroke="#e9a86a" stroke-width="1.4"/>
  <!-- ハート -->
  <path d="M32 46 c-3.4 -3 -6 -4.6 -6 -7.3 c0 -1.8 1.4 -3 3 -3 c1.2 0 2.3 0.8 3 1.9 c0.7 -1.1 1.8 -1.9 3 -1.9 c1.6 0 3 1.2 3 3 c0 2.7 -2.6 4.3 -6 7.3 Z" fill="#ff8fac"/>
</svg>
