<svg xmlns="http://www.w3.org/2000/svg" viewBox="0 0 512 512">
  <defs>
    <linearGradient id="bg" x1="0%" y1="0%" x2="100%" y2="100%">
      <stop offset="0%" stop-color="#5EC2FF"/>
      <stop offset="100%" stop-color="#2F80ED"/>
    </linearGradient>
  </defs>
  <rect width="512" height="512" fill="url(#bg)"/>

  <!-- book -->
  <path d="M90,332 Q90,308 114,308 Q182,308 250,334 L250,424 Q250,432 242,432 L100,432 Q90,432 90,422 Z" fill="#123A6B"/>
  <path d="M422,332 Q422,308 398,308 Q330,308 262,334 L262,424 Q262,432 270,432 L412,432 Q422,432 422,422 Z" fill="#123A6B"/>
  <path d="M102,328 Q102,314 120,314 Q180,314 246,336 L246,418 L114,418 Q102,418 102,406 Z" fill="#FFFFFF"/>
  <path d="M410,328 Q410,314 392,314 Q332,314 266,336 L266,418 L398,418 Q410,418 410,406 Z" fill="#FFFFFF"/>
  <line x1="256" y1="334" x2="256" y2="424" stroke="#123A6B" stroke-width="7"/>

  <!-- English speech bubble -->
  <rect x="60" y="96" width="336" height="164" rx="48" ry="48" fill="#ffffff"/>
  <polygon points="150,252 214,252 118,332" fill="#ffffff"/>
  <text x="228" y="182" font-family="Arial, Helvetica, sans-serif" font-weight="800" font-size="66" fill="#123A6B" text-anchor="middle" dominant-baseline="middle">English</text>

  <!-- typing bubble -->
  <rect x="330" y="222" width="132" height="96" rx="34" ry="34" fill="#FFC93C"/>
  <polygon points="352,314 392,314 362,352" fill="#FFC93C"/>
  <circle cx="368" cy="270" r="9" fill="#123A6B"/>
  <circle cx="396" cy="270" r="9" fill="#123A6B"/>
  <circle cx="424" cy="270" r="9" fill="#123A6B"/>
</svg>
